<?xml version="1.0" encoding="utf-8"?><!-- Uploaded to: SVG Repo, www.svgrepo.com, Generator: SVG Repo Mixer Tools -->
<svg viewBox="0 0 32 32" fill="none" xmlns="http://www.w3.org/2000/svg"><polygon points="24 21 24 9 22 9 22 23 30 23 30 21 24 21" fill="currentColor"/><path d="M18,9H14a2,2,0,0,0-2,2V21a2,2,0,0,0,2,2h1v2a2,2,0,0,0,2,2h2V25H17V23h1a2,2,0,0,0,2-2V11A2,2,0,0,0,18,9ZM14,21V11h4V21Z" fill="currentColor"/><path d="M8,23H2V21H8V17H4a2,2,0,0,1-2-2V11A2,2,0,0,1,4,9h6v2H4v4H8a2,2,0,0,1,2,2v4A2,2,0,0,1,8,23Z" fill="currentColor"/><rect width="32" height="32" fill="none"/></svg>