<svg class="group" width="158" height="22" viewBox="0 0 158 22" fill="none" xmlns="http://www.w3.org/2000/svg"><path d="M40.668 8.25965C40.0699 7.65965 39.3223 7.05966 38.4253 6.75966C37.5282 6.45966 36.4816 6.15967 35.2855 6.15967C34.0894 6.15967 32.5942 6.45967 31.5476 7.20966C30.5011 7.80965 29.604 8.70965 28.8564 9.90964C28.1088 11.1096 27.8098 12.3096 27.8098 13.8096C27.8098 15.3096 28.1088 16.5096 28.7069 17.7096C29.3049 18.9096 30.202 19.8095 31.3981 20.5595C32.5942 21.3095 33.9399 21.6095 35.435 21.6095C36.9301 21.6095 37.3787 21.6095 38.1262 21.1595C38.8738 20.7095 39.6214 20.4095 40.3689 19.9595C40.967 19.3596 41.4155 18.7596 41.7145 18.0096L38.5748 16.5096C38.2757 16.9596 37.8272 17.4096 37.3787 17.7096C36.9301 18.0096 36.1826 18.1596 35.5845 18.1596C34.9864 18.1596 34.0894 18.0096 33.6408 17.7096C33.0428 17.4096 32.7438 16.8096 32.4447 16.2096C32.4447 15.9096 32.1457 15.6096 32.1457 15.1596H42.3126C42.3126 15.0096 42.3126 14.7096 42.3126 14.4096C42.3126 14.1096 42.3126 13.8096 42.3126 13.5096C42.3126 12.4596 42.1631 11.5596 41.8641 10.6596C41.565 9.75964 41.1165 9.00964 40.5184 8.40965L40.668 8.25965ZM33.6408 9.90964C34.0894 9.60964 34.6874 9.45964 35.435 9.45964C36.1826 9.45964 36.7806 9.60964 37.2291 9.90964C37.6777 10.2096 38.1262 10.6596 38.2757 11.2596C38.2757 11.4096 38.2757 11.7096 38.2757 11.8596H32.2952C32.2952 11.7096 32.2952 11.4096 32.4447 11.2596C32.7438 10.6596 33.0428 10.0596 33.6408 9.75964V9.90964Z" fill="#120A0B" class="transition-all duration-200 group-hover:fill-primary"></path><path d="M56.516 7.20971C55.3199 6.60972 54.1238 6.15972 52.7782 6.15972C51.4325 6.15972 50.685 6.30972 49.9374 6.75971C49.4889 7.05971 49.0403 7.35971 48.5918 7.65971V3.75974C48.5918 2.10975 47.2462 0.759766 45.6015 0.759766H44.5549V21.0096H48.2928V19.6596C48.7413 20.1096 49.3394 20.5596 49.9374 20.8596C50.8345 21.1596 51.7316 21.4596 52.7782 21.4596C54.2733 21.4596 55.4694 21.1596 56.6655 20.4096C57.8616 19.8096 58.6092 18.7596 59.3567 17.7096C60.1043 16.6596 60.4033 15.3096 60.4033 13.8097C60.4033 12.3097 60.1043 11.1097 59.3567 9.90969C58.7587 8.7097 57.8616 7.8097 56.6655 7.20971H56.516ZM55.6189 15.9096C55.3199 16.5096 54.8713 16.9596 54.2733 17.2596C53.6752 17.5596 53.0772 17.7096 52.3296 17.7096C51.5821 17.7096 50.984 17.5596 50.386 17.2596C49.7879 16.9596 49.3394 16.5096 49.0403 15.9096C48.7413 15.3096 48.5918 14.5596 48.5918 13.8097C48.5918 13.0597 48.7413 12.3097 49.0403 11.7097C49.3394 11.1097 49.7879 10.6597 50.386 10.3597C50.984 10.0597 51.5821 9.90969 52.3296 9.90969C53.0772 9.90969 53.6752 10.0597 54.2733 10.3597C54.8713 10.6597 55.3199 11.1097 55.6189 11.7097C55.9179 12.3097 56.0675 13.0597 56.0675 13.8097C56.0675 14.5596 55.9179 15.3096 55.6189 15.9096Z" fill="#120A0B" class="transition-all duration-200 group-hover:fill-primary"></path><path d="M67.281 10.3598C67.879 10.0598 68.4771 9.90978 69.0751 9.90978C69.6732 9.90978 70.5703 10.0598 71.1683 10.5098C71.7664 10.9598 72.2149 11.5598 72.5139 12.3098L75.9527 10.8098C75.6537 9.90978 75.2052 9.15979 74.6071 8.4098C74.0091 7.8098 73.112 7.20981 72.2149 6.90981C71.3178 6.45981 70.2712 6.30981 69.2246 6.30981C68.178 6.30981 66.3839 6.60981 65.3373 7.35981C64.1412 7.9598 63.2441 8.85979 62.4965 10.0598C61.749 11.2598 61.45 12.4598 61.45 13.9597C61.45 15.4597 61.749 16.6597 62.4965 17.8597C63.2441 19.0597 64.1412 19.9597 65.3373 20.5597C66.5334 21.3097 67.879 21.6097 69.2246 21.6097C70.5703 21.6097 71.3178 21.4597 72.2149 21.0097C73.112 20.5597 74.0091 20.1097 74.6071 19.3597C75.2052 18.6097 75.8032 17.8597 75.9527 17.1097L72.5139 15.6097C72.2149 16.3597 71.7664 16.9597 71.3178 17.4097C70.7198 17.8597 69.9722 18.0097 69.2246 18.0097C68.4771 18.0097 67.879 17.8597 67.4305 17.5597C66.8324 17.2597 66.5334 16.8097 66.0849 16.2097C65.6363 15.6097 65.6363 14.8597 65.6363 14.1097C65.6363 13.3598 65.7858 12.6098 66.0849 12.0098C66.3839 11.4098 66.8324 10.9598 67.4305 10.6598L67.281 10.3598Z" fill="#120A0B" class="transition-all duration-200 group-hover:fill-primary"></path><path d="M82.8303 6.90966C82.2322 7.20966 81.7837 7.95965 81.4847 8.70965C81.1856 7.35966 79.9895 6.30967 78.4944 6.30967H77.7468V21.0095H81.7837V13.0596C81.7837 12.0096 82.0827 11.1096 82.6808 10.5096C83.2788 9.90964 84.0264 9.60964 85.073 9.60964H86.2691V6.15967H85.372C84.3254 6.15967 83.4283 6.30967 82.6808 6.75966L82.8303 6.90966Z" fill="#120A0B" class="transition-all duration-200 group-hover:fill-primary"></path><path d="M97.0344 15.0097C97.0344 15.6097 97.0344 16.0597 96.7353 16.5097C96.4363 16.9597 96.1373 17.2597 95.8383 17.5597C95.3897 17.8597 94.9412 17.8597 94.4926 17.8597C94.0441 17.8597 93.4461 17.8597 93.147 17.5597C92.848 17.2597 92.3995 16.9597 92.2499 16.5097C91.9509 16.0597 91.9509 15.6097 91.9509 15.0097V6.45981H87.9141V15.3097C87.9141 16.5097 88.0636 17.5597 88.5121 18.4597C88.9607 19.3597 89.5587 20.1097 90.4558 20.5597C91.3529 21.0097 92.2499 21.3097 93.4461 21.3097C94.6422 21.3097 95.3897 21.1597 96.1373 20.7097C96.7354 20.4097 97.1839 19.8097 97.6324 19.2097V21.0097H101.37V6.30981H97.3334V14.8597L97.0344 15.0097Z" fill="#120A0B" class="transition-all duration-200 group-hover:fill-primary"></path><path d="M123.199 6.90966C122.451 6.45967 121.405 6.15967 120.358 6.15967C119.312 6.15967 118.116 6.45966 117.218 7.05966C116.62 7.35966 116.172 7.80965 115.873 8.40965C115.574 7.95965 115.125 7.50966 114.677 7.05966C113.78 6.45966 112.733 6.15967 111.537 6.15967C110.341 6.15967 109.444 6.45967 108.547 6.90966C107.949 7.35966 107.5 7.80965 107.201 8.55965C106.753 7.35966 105.706 6.45967 104.36 6.45967H103.613V21.1595H107.65V12.6096C107.65 12.0096 107.65 11.5596 107.949 11.1096C108.248 10.6596 108.397 10.3596 108.846 10.2096C109.294 9.90964 109.743 9.90964 110.191 9.90964C110.64 9.90964 111.238 9.90964 111.537 10.2096C111.836 10.5096 112.135 10.8096 112.434 11.1096C112.584 11.5596 112.733 12.0096 112.733 12.6096V21.1595H116.77V12.6096C116.77 12.0096 116.77 11.5596 117.069 11.1096C117.368 10.6596 117.518 10.3596 117.966 10.2096C118.415 9.90964 118.863 9.90964 119.312 9.90964C119.76 9.90964 120.358 9.90964 120.657 10.2096C121.106 10.5096 121.255 10.8096 121.554 11.1096C121.704 11.5596 121.853 12.0096 121.853 12.6096V21.1595H125.89V11.7096C125.89 10.6596 125.591 9.60964 125.143 8.85964C124.694 7.95965 124.096 7.35966 123.199 6.90966Z" fill="#120A0B" class="transition-all duration-200 group-hover:fill-primary"></path><path d="M140.243 7.20971C139.047 6.60972 137.851 6.15972 136.505 6.15972C135.16 6.15972 134.562 6.30972 133.664 6.75971C133.216 7.05971 132.767 7.35971 132.319 7.65971V3.75974C132.319 2.10975 130.973 0.759766 129.329 0.759766H128.282V21.0096H132.02V19.6596C132.468 20.1096 133.066 20.5596 133.664 20.8596C134.562 21.1596 135.459 21.4596 136.505 21.4596C138 21.4596 139.196 21.1596 140.393 20.4096C141.589 19.8096 142.336 18.7596 143.084 17.7096C143.682 16.5096 144.13 15.3096 144.13 13.8097C144.13 12.3097 143.831 11.1097 143.084 9.90969C142.486 8.7097 141.589 7.8097 140.393 7.20971H140.243ZM139.346 15.9096C139.047 16.5096 138.598 16.9596 138 17.2596C137.402 17.5596 136.804 17.7096 136.057 17.7096C135.309 17.7096 134.711 17.5596 134.113 17.2596C133.515 16.9596 133.066 16.5096 132.767 15.9096C132.468 15.3096 132.319 14.5596 132.319 13.8097C132.319 13.0597 132.468 12.3097 132.767 11.7097C133.066 11.1097 133.515 10.6597 134.113 10.3597C134.711 10.0597 135.309 9.90969 136.057 9.90969C136.804 9.90969 137.402 10.0597 138 10.3597C138.598 10.6597 139.047 11.1097 139.346 11.7097C139.645 12.3097 139.794 13.0597 139.794 13.8097C139.794 14.5596 139.645 15.3096 139.346 15.9096Z" fill="#120A0B" class="transition-all duration-200 group-hover:fill-primary"></path><path d="M153.251 12.6096L150.859 11.8596C150.56 11.8596 150.261 11.7096 149.962 11.5596C149.663 11.5596 149.513 11.2596 149.513 11.1096C149.513 10.9596 149.364 10.8096 149.364 10.5096C149.364 10.0596 149.364 9.90963 149.812 9.60964C150.111 9.45964 150.56 9.30964 151.008 9.30964C151.457 9.30964 152.354 9.45964 152.952 9.90964C153.55 10.2096 153.849 10.8096 154.148 11.4096L157.138 10.0596C156.69 8.85964 155.942 7.95965 154.896 7.20966C153.849 6.60966 152.503 6.15967 151.158 6.15967C149.812 6.15967 149.065 6.30967 148.317 6.75966C147.42 7.20966 146.822 7.65965 146.373 8.40965C145.925 9.15964 145.626 9.90963 145.626 10.8096C145.626 11.7096 145.925 12.7596 146.523 13.5096C147.121 14.2596 148.018 14.8596 149.214 15.1596L151.756 15.9096C152.055 15.9096 152.354 16.0596 152.503 16.2096C152.653 16.2096 152.952 16.5096 152.952 16.6596C152.952 16.8096 153.101 16.9596 153.101 17.2596C153.101 17.7096 152.952 18.0096 152.653 18.1596C152.354 18.4596 151.905 18.4596 151.307 18.4596C150.709 18.4596 149.812 18.3096 149.214 17.8596C148.616 17.4096 148.018 16.8096 147.719 16.0596L144.729 17.4096C145.177 18.7596 145.925 19.6595 147.121 20.4095C148.317 21.1595 149.663 21.6095 151.307 21.6095C152.952 21.6095 153.401 21.4595 154.298 21.0095C155.195 20.5595 155.793 20.1095 156.241 19.3596C156.69 18.6096 156.989 17.8596 156.989 16.9596C156.989 16.0596 156.69 15.0096 156.092 14.2596C155.494 13.5096 154.447 13.0596 153.251 12.6096Z" fill="#120A0B" class="transition-all duration-200 group-hover:fill-primary"></path><path d="M9.12031 9.30969C7.17664 7.50971 5.53199 5.85972 4.78442 3.60974C4.33589 1.95976 2.69124 0.759766 1.04659 0.759766H0C0 6.75971 3.28929 9.75969 6.13004 12.4597C8.82128 14.8596 10.765 16.9596 10.765 21.0096H15.1008C15.1008 15.0096 11.8115 12.0097 8.9708 9.30969H9.12031Z" fill="#120A0B" class="transition-all duration-200 group-hover:fill-primary"></path><path d="M23.0254 0.759862H21.6798V10.9598C21.0817 10.3598 20.4836 9.90978 20.0351 9.30979C18.0914 7.5098 16.4468 5.85982 15.6992 3.60984C15.2507 1.95985 13.606 0.759862 11.9614 0.759862H10.9148C10.9148 6.75981 14.2041 9.75978 17.0448 12.4598C19.7361 15.0097 21.6798 16.9597 21.6798 21.0097H26.0156C26.0156 17.8597 25.1186 15.6097 23.9224 13.6597H26.0156V3.60984C26.0156 1.95985 24.67 0.609863 23.0254 0.609863V0.759862Z" fill="#120A0B" class="transition-all duration-200 group-hover:fill-primary"></path></svg>